# xmcd
#
# Track frame offsets: 
#        150
#        15840
#        27205
#        40087
#        50450
#        67755
#        78032
#        89257
#        103700
#        114270
#        128115
#        148785
#        161657
#        177170
#        192220
#
# Disc length: 2702 seconds
#
# Revision: 0
# Processed by: cddbd v1.5.2PL0 Copyright (c) Steve Scherf et al.
# Submitted via: ExactAudioCopy v0.99pb3
#
DISCID=af0a8c0f
DTITLE=Dave Kelly and Bob Hall - Survivors
DYEAR=1999
DGENRE=Blues
TTITLE0=Few Short Lines
TTITLE1=Ain't Nobody Minding
TTITLE2=Nobody Knows When You're Down And Out
TTITLE3=Erwin's Boogie
TTITLE4=Passing Through
TTITLE5=God Don't Ever Change
TTITLE6=I'm Talking About You
TTITLE7=ShelbyCounty Blues
TTITLE8=Crying Blues
TTITLE9=Come On In My Kitchen
TTITLE10=The Spider
TTITLE11=Shake Your Moneymaker
TTITLE12=Baby Please Don't Go
TTITLE13=Keep A Knockin'
TTITLE14=When I'll Be Loved
EXTD=
EXTT0=
EXTT1=
EXTT2=
EXTT3=
EXTT4=
EXTT5=
EXTT6=
EXTT7=
EXTT8=
EXTT9=
EXTT10=
EXTT11=
EXTT12=
EXTT13=
EXTT14=
PLAYORDER=
